<svg xmlns="http://www.w3.org/2000/svg" version="1.1" xmlns:xlink="http://www.w3.org/1999/xlink" xmlns:svgjs="http://svgjs.dev/svgjs" width="1000" height="297" viewBox="0 0 1000 297"><g transform="matrix(1,0,0,1,-0.6060545589869548,-0.4824224100005665)"><svg viewBox="0 0 396 118" data-background-color="#ffffff" preserveAspectRatio="xMidYMid meet" height="297" width="1000" xmlns="http://www.w3.org/2000/svg" xmlns:xlink="http://www.w3.org/1999/xlink"><g id="tight-bounds" transform="matrix(1,0,0,1,0.23999760535883752,0.1916695096971921)"><svg viewBox="0 0 395.52 117.61666098060562" height="117.61666098060562" width="395.52"><g><svg viewBox="0 0 395.52 117.61666098060562" height="117.61666098060562" width="395.52"><g transform="matrix(1,0,0,1,0,65.86188535127326)"><svg viewBox="0 0 395.52 51.75477562933236" height="51.75477562933236" width="395.52"><g id="textblocktransform"><svg viewBox="0 0 395.52 51.75477562933236" height="51.75477562933236" width="395.52" id="textblock"><g><svg viewBox="0 0 395.52 51.75477562933236" height="51.75477562933236" width="395.52"><g transform="matrix(1,0,0,1,0,0)"><svg width="395.52" viewBox="3.0999999046325684 -40.04999923706055 411.1199951171875 53.79999923706055" height="51.75477562933236" data-palette-color="#000000"><path d="M24.95-35.1L33.5-35.1 33.5 0 24.95 0 24.95-14.45 11.65-14.45 11.65 0 3.1 0 3.1-35.1 11.65-35.1 11.65-21.35 24.95-21.35 24.95-35.1ZM43.95-30.8Q41.7-30.8 40.27-32.13 38.85-33.45 38.85-35.4L38.85-35.4Q38.85-37.4 40.27-38.73 41.7-40.05 43.95-40.05L43.95-40.05Q46.15-40.05 47.57-38.73 49-37.4 49-35.4L49-35.4Q49-33.45 47.57-32.13 46.15-30.8 43.95-30.8L43.95-30.8ZM39.65-27.9L48.2-27.9 48.2 0 39.65 0 39.65-27.9ZM65-28.3Q67.95-28.3 70.17-27.1 72.4-25.9 73.6-23.95L73.6-23.95 73.6-27.9 82.15-27.9 82.15-0.05Q82.15 3.8 80.62 6.93 79.1 10.05 75.97 11.9 72.85 13.75 68.2 13.75L68.2 13.75Q62 13.75 58.15 10.83 54.3 7.9 53.75 2.9L53.75 2.9 62.2 2.9Q62.6 4.5 64.1 5.43 65.6 6.35 67.8 6.35L67.8 6.35Q70.45 6.35 72.02 4.83 73.6 3.3 73.6-0.05L73.6-0.05 73.6-4Q72.35-2.05 70.15-0.83 67.95 0.4 65 0.4L65 0.4Q61.55 0.4 58.75-1.38 55.95-3.15 54.32-6.43 52.7-9.7 52.7-14L52.7-14Q52.7-18.3 54.32-21.55 55.95-24.8 58.75-26.55 61.55-28.3 65-28.3L65-28.3ZM73.6-13.95Q73.6-17.15 71.82-19 70.05-20.85 67.5-20.85L67.5-20.85Q64.95-20.85 63.17-19.03 61.4-17.2 61.4-14L61.4-14Q61.4-10.8 63.17-8.93 64.95-7.05 67.5-7.05L67.5-7.05Q70.05-7.05 71.82-8.9 73.6-10.75 73.6-13.95L73.6-13.95ZM105.49-28.2Q110.29-28.2 113.19-25.03 116.09-21.85 116.09-16.3L116.09-16.3 116.09 0 107.59 0 107.59-15.15Q107.59-17.95 106.14-19.5 104.69-21.05 102.24-21.05L102.24-21.05Q99.79-21.05 98.34-19.5 96.89-17.95 96.89-15.15L96.89-15.15 96.89 0 88.34 0 88.34-37 96.89-37 96.89-24.15Q98.19-26 100.44-27.1 102.69-28.2 105.49-28.2L105.49-28.2ZM145.34 0.35Q141.49 0.35 138.44-0.9 135.39-2.15 133.56-4.6 131.74-7.05 131.64-10.5L131.64-10.5 140.74-10.5Q140.94-8.55 142.09-7.53 143.24-6.5 145.09-6.5L145.09-6.5Q146.99-6.5 148.09-7.38 149.19-8.25 149.19-9.8L149.19-9.8Q149.19-11.1 148.31-11.95 147.44-12.8 146.16-13.35 144.89-13.9 142.54-14.6L142.54-14.6Q139.14-15.65 136.99-16.7 134.84-17.75 133.29-19.8 131.74-21.85 131.74-25.15L131.74-25.15Q131.74-30.05 135.29-32.83 138.84-35.6 144.54-35.6L144.54-35.6Q150.34-35.6 153.89-32.83 157.44-30.05 157.69-25.1L157.69-25.1 148.44-25.1Q148.34-26.8 147.19-27.78 146.04-28.75 144.24-28.75L144.24-28.75Q142.69-28.75 141.74-27.93 140.79-27.1 140.79-25.55L140.79-25.55Q140.79-23.85 142.39-22.9 143.99-21.95 147.39-20.85L147.39-20.85Q150.79-19.7 152.91-18.65 155.04-17.6 156.59-15.6 158.14-13.6 158.14-10.45L158.14-10.45Q158.14-7.45 156.61-5 155.09-2.55 152.19-1.1 149.29 0.35 145.34 0.35L145.34 0.35ZM175.89-7.25L178.94-7.25 178.94 0 174.59 0Q169.94 0 167.34-2.27 164.74-4.55 164.74-9.7L164.74-9.7 164.74-20.8 161.34-20.8 161.34-27.9 164.74-27.9 164.74-34.7 173.29-34.7 173.29-27.9 178.89-27.9 178.89-20.8 173.29-20.8 173.29-9.6Q173.29-8.35 173.89-7.8 174.49-7.25 175.89-7.25L175.89-7.25ZM192.23-23.25Q193.73-25.55 195.98-26.88 198.23-28.2 200.98-28.2L200.98-28.2 200.98-19.15 198.63-19.15Q195.43-19.15 193.83-17.78 192.23-16.4 192.23-12.95L192.23-12.95 192.23 0 183.68 0 183.68-27.9 192.23-27.9 192.23-23.25ZM231.38-14.4Q231.38-13.2 231.23-11.9L231.23-11.9 211.88-11.9Q212.08-9.3 213.56-7.93 215.03-6.55 217.18-6.55L217.18-6.55Q220.38-6.55 221.63-9.25L221.63-9.25 230.73-9.25Q230.03-6.5 228.21-4.3 226.38-2.1 223.63-0.85 220.88 0.4 217.48 0.4L217.48 0.4Q213.38 0.4 210.18-1.35 206.98-3.1 205.18-6.35 203.38-9.6 203.38-13.95L203.38-13.95Q203.38-18.3 205.16-21.55 206.93-24.8 210.13-26.55 213.33-28.3 217.48-28.3L217.48-28.3Q221.53-28.3 224.68-26.6 227.83-24.9 229.61-21.75 231.38-18.6 231.38-14.4L231.38-14.4ZM211.93-16.65L222.63-16.65Q222.63-18.85 221.13-20.15 219.63-21.45 217.38-21.45L217.38-21.45Q215.23-21.45 213.76-20.2 212.28-18.95 211.93-16.65L211.93-16.65ZM262.18-14.4Q262.18-13.2 262.03-11.9L262.03-11.9 242.68-11.9Q242.88-9.3 244.35-7.93 245.83-6.55 247.98-6.55L247.98-6.55Q251.18-6.55 252.43-9.25L252.43-9.25 261.53-9.25Q260.83-6.5 259-4.3 257.18-2.1 254.43-0.85 251.68 0.4 248.28 0.4L248.28 0.4Q244.18 0.4 240.98-1.35 237.78-3.1 235.98-6.35 234.18-9.6 234.18-13.95L234.18-13.95Q234.18-18.3 235.95-21.55 237.73-24.8 240.93-26.55 244.13-28.3 248.28-28.3L248.28-28.3Q252.33-28.3 255.48-26.6 258.63-24.9 260.4-21.75 262.18-18.6 262.18-14.4L262.18-14.4ZM242.73-16.65L253.43-16.65Q253.43-18.85 251.93-20.15 250.43-21.45 248.18-21.45L248.18-21.45Q246.03-21.45 244.55-20.2 243.08-18.95 242.73-16.65L242.73-16.65ZM279.18-7.25L282.23-7.25 282.23 0 277.88 0Q273.23 0 270.63-2.27 268.03-4.55 268.03-9.7L268.03-9.7 268.03-20.8 264.63-20.8 264.63-27.9 268.03-27.9 268.03-34.7 276.58-34.7 276.58-27.9 282.18-27.9 282.18-20.8 276.58-20.8 276.58-9.6Q276.58-8.35 277.18-7.8 277.78-7.25 279.18-7.25L279.18-7.25ZM330.32-24L320.87-24Q319.92-25.75 318.15-26.68 316.37-27.6 313.97-27.6L313.97-27.6Q309.82-27.6 307.32-24.88 304.82-22.15 304.82-17.6L304.82-17.6Q304.82-12.75 307.45-10.03 310.07-7.3 314.67-7.3L314.67-7.3Q317.82-7.3 320-8.9 322.17-10.5 323.17-13.5L323.17-13.5 312.32-13.5 312.32-19.8 330.92-19.8 330.92-11.85Q329.97-8.65 327.7-5.9 325.42-3.15 321.92-1.45 318.42 0.25 314.02 0.25L314.02 0.25Q308.82 0.25 304.75-2.02 300.67-4.3 298.4-8.35 296.12-12.4 296.12-17.6L296.12-17.6Q296.12-22.8 298.4-26.88 300.67-30.95 304.72-33.23 308.77-35.5 313.97-35.5L313.97-35.5Q320.27-35.5 324.6-32.45 328.92-29.4 330.32-24L330.32-24ZM354.92-27.9L364.17-27.9 346.67 13.25 337.47 13.25 343.87-0.95 332.52-27.9 342.07-27.9 348.52-10.45 354.92-27.9ZM402.87-28.2Q408.07-28.2 411.14-25.05 414.22-21.9 414.22-16.3L414.22-16.3 414.22 0 405.72 0 405.72-15.15Q405.72-17.85 404.29-19.33 402.87-20.8 400.37-20.8L400.37-20.8Q397.87-20.8 396.44-19.33 395.02-17.85 395.02-15.15L395.02-15.15 395.02 0 386.52 0 386.52-15.15Q386.52-17.85 385.09-19.33 383.67-20.8 381.17-20.8L381.17-20.8Q378.67-20.8 377.24-19.33 375.82-17.85 375.82-15.15L375.82-15.15 375.82 0 367.27 0 367.27-27.9 375.82-27.9 375.82-24.4Q377.12-26.15 379.22-27.18 381.32-28.2 383.97-28.2L383.97-28.2Q387.12-28.2 389.59-26.85 392.07-25.5 393.47-23L393.47-23Q394.92-25.3 397.42-26.75 399.92-28.2 402.87-28.2L402.87-28.2Z" opacity="1" transform="matrix(1,0,0,1,0,0)" fill="#000000" class="wordmark-text-0" data-fill-palette-color="primary" id="text-0"></path></svg></g></svg></g></svg></g></svg></g><g transform="matrix(1,0,0,1,162.58552604614917,0)"><svg viewBox="0 0 70.34894790770163 53.643824939803" height="53.643824939803" width="70.34894790770163"><g><svg xmlns="http://www.w3.org/2000/svg" xmlns:xlink="http://www.w3.org/1999/xlink" version="1.1" x="0" y="0" viewBox="0.5260000228881836 6.3379998207092285 48.946998596191406 37.32400131225586" enable-background="new 0 0 50 50" xml:space="preserve" height="53.643824939803" width="70.34894790770163" class="icon-icon-0" data-fill-palette-color="accent" id="icon-0"><g fill="#0074d9" data-fill-palette-color="accent"><path fill="#0074d9" d="M36.316 6.338H15.526l-15 37.324h48.947L36.316 6.338zM24.292 8.753h1.554l0.984 5.461h-3.66L24.292 8.753zM24.106 18.801h1.962l1.24 6.892h-4.618L24.106 18.801zM22.071 40.213l1.795-8.742h2.488l1.576 8.742H22.071z" data-fill-palette-color="accent"></path></g></svg></g></svg></g><g></g></svg></g><defs></defs></svg><rect width="395.52" height="117.61666098060562" fill="none" stroke="none" visibility="hidden"></rect></g></svg></g></svg>